<?xml version="1.0" encoding="utf-8"?>
<!-- Generator: Adobe Illustrator 21.1.0, SVG Export Plug-In . SVG Version: 6.00 Build 0)  -->
<svg version="1.1" id="Layer_1" xmlns="http://www.w3.org/2000/svg" xmlns:xlink="http://www.w3.org/1999/xlink" x="0px" y="0px"
	 viewBox="0 0 168.2 49" style="enable-background:new 0 0 168.2 49;" xml:space="preserve">
<style type="text/css">
	.st0{fill:#E5E5EA;}
	.st1{fill:#212E3F;}
	.st2{display:none;}
	.st3{display:inline;}
	.st4{fill:#027CFF;}
	.st5{enable-background:new    ;}
	.st6{fill:#FFFFFF;}
</style>
<g>
	
		<image style="overflow:visible;opacity:0.2;enable-background:new    ;" width="704" height="208" xlink:href="C88A082A04056261.png"  transform="matrix(0.239 0 0 0.2354 0 0)">
	</image>
	<g>
		<path class="st0" d="M8.5,34V22.9c0-0.2,0-0.3,0-0.5C8.5,12.3,16.8,4,26.9,4h114.8c10.2,0,18.5,8.3,18.5,18.5S151.9,41,141.7,41
			H26.9c-3.8,0-7.4-1.2-10.3-3.2l0,0C9.6,42.4,4,40.2,4,40.2C8.5,38.7,8.5,34,8.5,34z"/>
	</g>
</g>
<path class="st1" d="M29.2,21.2c0-5.2,2.7-8.4,7-8.4c3.4,0,6,2.1,6.5,5.2h-2c-0.5-2.1-2.2-3.4-4.4-3.4c-3.1,0-5,2.5-5,6.5
	c0,4,1.9,6.5,5,6.5c2.2,0,3.9-1.1,4.4-3h2c-0.5,2.9-3.1,4.8-6.5,4.8C31.9,29.6,29.2,26.4,29.2,21.2z"/>
<path class="st1" d="M45.5,13.5c0-0.7,0.6-1.3,1.3-1.3c0.7,0,1.3,0.6,1.3,1.3s-0.6,1.3-1.3,1.3C46,14.8,45.5,14.2,45.5,13.5z
	 M45.8,17.3h1.9v11.9h-1.9V17.3z"/>
<path class="st1" d="M50.7,25.9c0-2.1,1.6-3.4,4.4-3.5l3.4-0.2V21c0-1.5-0.9-2.3-2.7-2.3c-1.4,0-2.4,0.5-2.7,1.5h-1.9
	c0.3-1.9,2.1-3.2,4.7-3.2c2.9,0,4.5,1.5,4.5,4v8.2h-1.8v-1.8h-0.2c-0.8,1.3-2.1,2-3.7,2C52.4,29.4,50.7,28,50.7,25.9z M58.5,24.8
	v-1.1l-3.2,0.2c-1.8,0.1-2.6,0.8-2.6,2c0,1.2,1,1.9,2.4,1.9C57,27.7,58.5,26.5,58.5,24.8z"/>
<path class="st1" d="M63.3,23.2c0-3.8,2.1-6.2,5.5-6.2s5.5,2.3,5.5,6.2c0,3.8-2.1,6.2-5.5,6.2S63.3,27.1,63.3,23.2z M72.3,23.2
	c0-2.8-1.3-4.5-3.5-4.5s-3.5,1.6-3.5,4.5c0,2.8,1.3,4.5,3.5,4.5S72.3,26.1,72.3,23.2z"/>
<path class="st1" d="M76.8,33.3l1.1-6.3h2.2l-1.6,6.3H76.8z"/>
<path class="st1" d="M90.4,29.2v-16h6.1c2.9,0,4.7,1.5,4.7,4c0,1.7-1.2,3.2-2.8,3.4v0.2c2.2,0.3,3.6,1.8,3.6,3.9
	c0,2.8-2,4.5-5.4,4.5H90.4z M92.4,20.1h3.2c2.4,0,3.6-0.9,3.6-2.6c0-1.6-1.2-2.6-3.1-2.6h-3.7V20.1z M96.4,27.4c2.4,0,3.7-1,3.7-2.8
	c0-1.9-1.3-2.8-3.9-2.8h-3.8v5.6H96.4z"/>
<path class="st1" d="M105.3,33.5v-1.6c0.2,0,0.5,0.1,0.8,0.1c1.1,0,1.7-0.5,2.2-2l0.2-0.7l-4.4-12h2.1l3.3,9.8h0.2l3.3-9.8h2
	l-4.7,12.7c-1,2.8-2,3.6-4.1,3.6C105.9,33.5,105.5,33.5,105.3,33.5z"/>
<path class="st1" d="M120.1,14.2v3.1h2.7v1.6h-2.7v6.8c0,1.4,0.5,2,1.8,2c0.3,0,0.5,0,0.9,0v1.6c-0.4,0.1-0.7,0.1-1.1,0.1
	c-2.5,0-3.4-0.9-3.4-3.2v-7.2h-1.9v-1.6h1.9v-3.1H120.1z"/>
<path class="st1" d="M135.3,26.1c-0.6,2-2.4,3.3-5,3.3c-3.3,0-5.4-2.4-5.4-6.2c0-3.8,2.1-6.2,5.4-6.2c3.2,0,5.2,2.3,5.2,6v0.7h-8.6
	v0.1c0.1,2.4,1.4,3.9,3.4,3.9c1.5,0,2.6-0.6,3.1-1.6H135.3z M126.9,22.2h6.6c0-2.1-1.3-3.5-3.2-3.5C128.4,18.7,127,20.1,126.9,22.2z
	"/>
<path class="st1" d="M140.2,26.3c0.9,0,1.5,0.6,1.5,1.6c0,0.9-0.6,1.5-1.5,1.5c-0.9,0-1.5-0.6-1.5-1.5
	C138.7,27,139.3,26.3,140.2,26.3z M141.3,13.2l-0.2,10.7h-1.8l-0.2-10.7H141.3z"/>
<g id="Layer_2" class="st2">
	<g class="st3">
		
			<image style="overflow:visible;opacity:0.2;enable-background:new    ;" width="1096" height="213" xlink:href="C88A082A04056263.png"  transform="matrix(0.2398 0 0 0.231 -33.6 84.72)">
		</image>
		<g>
			<path class="st4" d="M216.7,118.9v-11.1c0-0.2,0-0.3,0-0.5c0-10.2-8.3-18.5-18.5-18.5H-11c-10.2,0-18.5,8.3-18.5,18.5
				s8.3,18.5,18.5,18.5h209.3c3.8,0,7.4-1.2,10.3-3.2l0,0c7,4.7,12.6,2.4,12.6,2.4C216.7,123.6,216.7,118.9,216.7,118.9z"/>
		</g>
	</g>
	
		<text transform="matrix(1 0 0 1 -11.406 114.4763)" style="display:inline;fill:#FFFFFF; font-family:'SFUIText-Regular'; font-size:22.6834px;">Ciao, Blu! Come va?</text>
</g>
</svg>
