<?xml version="1.0" encoding="utf-8"?>
<!-- Generator: Adobe Illustrator 21.1.0, SVG Export Plug-In . SVG Version: 6.00 Build 0)  -->
<svg version="1.1" id="Layer_1" xmlns="http://www.w3.org/2000/svg" xmlns:xlink="http://www.w3.org/1999/xlink" x="0px" y="0px"
	 viewBox="0 0 262.8 49.2" style="enable-background:new 0 0 262.8 49.2;" xml:space="preserve">
<style type="text/css">
	.st0{display:none;}
	.st1{display:inline;}
	.st2{fill:#E5E5EA;}
	.st3{enable-background:new    ;}
	.st4{fill:#212E3F;}
	.st5{fill:#027CFF;}
	.st6{fill:#FFFFFF;}
</style>
<g id="Layer_1_1_" class="st0">
	<g class="st1">
		
			<image style="overflow:visible;opacity:0.2;enable-background:new    ;" width="704" height="208" xlink:href="D818EBA8993E9D34.png"  transform="matrix(0.239 0 0 0.2354 33.6 -84.72)">
		</image>
		<g>
			<path class="st2" d="M42.1-50.7v-11.1c0-0.2,0-0.3,0-0.5c0-10.2,8.3-18.5,18.5-18.5h114.8c10.2,0,18.5,8.3,18.5,18.5
				s-8.3,18.5-18.5,18.5H60.5c-3.8,0-7.4-1.2-10.3-3.2l0,0c-7,4.7-12.6,2.4-12.6,2.4C42.1-46,42.1-50.7,42.1-50.7z"/>
		</g>
	</g>
	
		<text transform="matrix(1 0 0 1 61.3505 -55.513)" style="display:inline;fill:#212E3F; font-family:'SFUIText-Regular'; font-size:22.6834px;">Ciao, Byte!</text>
</g>
<g>
	
		<image style="overflow:visible;opacity:0.2;enable-background:new    ;" width="1096" height="213" xlink:href="D818EBA8993E9D35.png"  transform="matrix(0.2398 0 0 0.231 0 0)">
	</image>
	<g>
		<path class="st5" d="M250.3,34.2V23.1c0-0.2,0-0.3,0-0.5c0-10.2-8.3-18.5-18.5-18.5H22.6c-10.2,0-18.5,8.3-18.5,18.5
			s8.3,18.5,18.5,18.5h209.3c3.8,0,7.4-1.2,10.3-3.2l0,0c7,4.7,12.6,2.4,12.6,2.4C250.3,38.9,250.3,34.2,250.3,34.2z"/>
	</g>
</g>
<path class="st6" d="M23.6,21.8c0-5.2,2.7-8.4,7-8.4c3.4,0,6,2.1,6.5,5.2h-2c-0.5-2.1-2.2-3.4-4.4-3.4c-3.1,0-5,2.5-5,6.5
	c0,4,1.9,6.5,5,6.5c2.2,0,3.9-1.1,4.4-3h2c-0.5,2.9-3.1,4.8-6.5,4.8C26.3,30.1,23.6,26.9,23.6,21.8z"/>
<path class="st6" d="M39.9,14.1c0-0.7,0.6-1.3,1.3-1.3c0.7,0,1.3,0.6,1.3,1.3s-0.6,1.3-1.3,1.3C40.5,15.4,39.9,14.8,39.9,14.1z
	 M40.3,17.8h1.9v11.9h-1.9V17.8z"/>
<path class="st6" d="M45.1,26.4c0-2.1,1.6-3.4,4.4-3.5l3.4-0.2v-1.1c0-1.5-0.9-2.3-2.7-2.3c-1.4,0-2.4,0.5-2.7,1.5h-1.9
	c0.3-1.9,2.1-3.2,4.7-3.2c2.9,0,4.5,1.5,4.5,4v8.2H53V28h-0.2c-0.8,1.3-2.1,2-3.7,2C46.8,30,45.1,28.6,45.1,26.4z M52.9,25.3v-1.1
	l-3.2,0.2c-1.8,0.1-2.6,0.8-2.6,1.9c0,1.2,1,1.9,2.4,1.9C51.4,28.3,52.9,27,52.9,25.3z"/>
<path class="st6" d="M57.7,23.8c0-3.8,2.1-6.2,5.5-6.2s5.5,2.3,5.5,6.2c0,3.8-2.1,6.2-5.5,6.2S57.7,27.6,57.7,23.8z M66.8,23.8
	c0-2.8-1.3-4.5-3.5-4.5s-3.5,1.6-3.5,4.5c0,2.8,1.3,4.5,3.5,4.5S66.8,26.6,66.8,23.8z"/>
<path class="st6" d="M71.2,33.8l1.1-6.3h2.2l-1.6,6.3H71.2z"/>
<path class="st6" d="M84.9,29.8v-16H91c2.9,0,4.7,1.5,4.7,4c0,1.7-1.2,3.2-2.8,3.4v0.2c2.2,0.3,3.6,1.8,3.6,3.9c0,2.8-2,4.5-5.4,4.5
	H84.9z M86.9,20.7h3.2c2.4,0,3.6-0.9,3.6-2.6c0-1.6-1.2-2.6-3.1-2.6h-3.7V20.7z M90.8,28c2.4,0,3.7-1,3.7-2.8c0-1.9-1.3-2.8-3.9-2.8
	h-3.8V28H90.8z"/>
<path class="st6" d="M99.7,13.1h1.9v16.7h-1.9V13.1z"/>
<path class="st6" d="M114.9,29.8h-1.8v-1.9h-0.2c-0.6,1.3-1.9,2.1-3.7,2.1c-2.7,0-4.1-1.6-4.1-4.4v-7.7h1.9v7.3
	c0,2.1,0.8,3.1,2.7,3.1c2.1,0,3.3-1.3,3.3-3.3v-7.1h1.9V29.8z"/>
<path class="st6" d="M120.2,26.9c0.9,0,1.5,0.6,1.5,1.6c0,0.9-0.6,1.5-1.5,1.5c-0.9,0-1.5-0.6-1.5-1.5
	C118.7,27.5,119.4,26.9,120.2,26.9z M121.3,13.8l-0.2,10.7h-1.8l-0.2-10.7H121.3z"/>
<path class="st6" d="M131.6,21.8c0-5.2,2.7-8.4,7-8.4c3.4,0,6,2.1,6.5,5.2h-2c-0.5-2.1-2.2-3.4-4.4-3.4c-3.1,0-5,2.5-5,6.5
	c0,4,1.9,6.5,5,6.5c2.2,0,3.9-1.1,4.4-3h2c-0.5,2.9-3.1,4.8-6.5,4.8C134.3,30.1,131.6,26.9,131.6,21.8z"/>
<path class="st6" d="M147.6,23.8c0-3.8,2.1-6.2,5.5-6.2c3.4,0,5.5,2.3,5.5,6.2c0,3.8-2.1,6.2-5.5,6.2
	C149.7,30,147.6,27.6,147.6,23.8z M156.6,23.8c0-2.8-1.3-4.5-3.5-4.5s-3.5,1.6-3.5,4.5c0,2.8,1.3,4.5,3.5,4.5S156.6,26.6,156.6,23.8
	z"/>
<path class="st6" d="M161.6,17.8h1.8v1.9h0.2c0.5-1.3,1.7-2.1,3.3-2.1c1.6,0,2.7,0.9,3.3,2.1h0.2c0.6-1.3,2-2.1,3.7-2.1
	c2.4,0,3.8,1.4,3.8,3.9v8.3H176v-7.8c0-1.8-0.8-2.6-2.5-2.6c-1.7,0-2.8,1.2-2.8,2.8v7.7h-1.9v-8.1c0-1.4-1-2.3-2.5-2.3
	c-1.6,0-2.8,1.4-2.8,3v7.4h-1.9V17.8z"/>
<path class="st6" d="M191.2,26.7c-0.6,2-2.4,3.3-5,3.3c-3.3,0-5.4-2.4-5.4-6.2c0-3.8,2.1-6.2,5.4-6.2c3.2,0,5.2,2.3,5.2,6v0.7h-8.6
	v0.1c0.1,2.4,1.4,3.9,3.4,3.9c1.5,0,2.6-0.6,3.1-1.6H191.2z M182.7,22.8h6.6c0-2.1-1.3-3.5-3.2-3.5
	C184.2,19.3,182.9,20.7,182.7,22.8z"/>
<path class="st6" d="M201.7,17.8l3.3,9.8h0.2l3.3-9.8h2L206,29.8h-2l-4.4-11.9H201.7z"/>
<path class="st6" d="M211.8,26.4c0-2.1,1.6-3.4,4.4-3.5l3.4-0.2v-1.1c0-1.5-0.9-2.3-2.7-2.3c-1.4,0-2.4,0.5-2.7,1.5h-1.9
	c0.3-1.9,2.1-3.2,4.7-3.2c2.9,0,4.5,1.5,4.5,4v8.2h-1.8V28h-0.2c-0.8,1.3-2.1,2-3.7,2C213.6,30,211.8,28.6,211.8,26.4z M219.6,25.3
	v-1.1l-3.2,0.2c-1.8,0.1-2.6,0.8-2.6,1.9c0,1.2,1,1.9,2.4,1.9C218.2,28.3,219.6,27,219.6,25.3z"/>
<path class="st6" d="M229,13.6c2.8,0,4.7,1.7,4.7,4c0,1.7-0.9,3-2.3,3.8c-1.4,0.8-1.8,1.5-1.8,2.6v0.7h-1.9v-1
	c0-1.5,0.7-2.5,2.2-3.4c1.3-0.8,1.8-1.5,1.8-2.7c0-1.4-1.1-2.4-2.7-2.4c-1.7,0-2.7,1-2.9,2.6h-1.9C224.3,15.6,225.9,13.6,229,13.6z
	 M227.2,28.4c0-0.9,0.6-1.6,1.5-1.6s1.5,0.6,1.5,1.6c0,0.9-0.6,1.5-1.5,1.5S227.2,29.3,227.2,28.4z"/>
</svg>
