<?xml version="1.0" encoding="utf-8"?>
<!-- Generator: Adobe Illustrator 21.1.0, SVG Export Plug-In . SVG Version: 6.00 Build 0)  -->
<svg version="1.1" id="Layer_1" xmlns="http://www.w3.org/2000/svg" xmlns:xlink="http://www.w3.org/1999/xlink" x="0px" y="0px"
	 viewBox="0 0 282.2 49" style="enable-background:new 0 0 282.2 49;" xml:space="preserve">
<style type="text/css">
	.st0{fill:#027CFF;}
	.st1{display:none;enable-background:new    ;}
	.st2{display:inline;fill:#FFFFFF;}
	.st3{display:none;}
	.st4{display:inline;enable-background:new    ;}
	.st5{fill:#FFFFFF;}
	.st6{fill:none;}
</style>
<g id="Layer_1_2_">
	<title>byteMessage</title>
	<g>
		<g id="Layer_1_1_">
			
				<image style="overflow:visible;opacity:0.2;enable-background:new    ;" width="1130" height="209" xlink:href="6AE90B3F76FC664B.png"  transform="matrix(0.2387 0 0 0.2343 0.4167 0)">
			</image>
			<path class="st0" d="M269.6,34V23c0-0.2,0-0.3,0-0.5c-0.1-10.2-8.3-18.4-18.4-18.4H22.9C12.7,4.3,4.6,12.8,4.9,23
				c0.2,9.9,8.2,17.8,18,18h228.3c3.7,0,7.3-1.1,10.3-3.2l0,0c7,4.7,12.6,2.4,12.6,2.4C269.6,38.7,269.6,34,269.6,34z"/>
		</g>
	</g>
	<g class="st1">
		<path class="st2" d="M30.4,30v-7.3h-8.9V30h-2V13.8h2v7h8.9v-7h2V30H30.4z"/>
		<path class="st2" d="M35.6,26.6c0-2.2,1.6-3.4,4.4-3.6l3.5-0.2v-1.1c0-1.5-0.9-2.3-2.7-2.3c-1.4,0-2.4,0.5-2.7,1.5h-1.9
			c0.3-1.9,2.2-3.2,4.7-3.2c2.9,0,4.6,1.5,4.6,4V30h-1.8v-1.8h-0.2c-0.8,1.3-2.1,2-3.7,2C37.3,30.2,35.6,28.8,35.6,26.6z M43.5,25.5
			v-1.1l-3.2,0.2c-1.8,0.1-2.6,0.8-2.6,2s1,1.9,2.4,1.9C42,28.5,43.5,27.2,43.5,25.5z"/>
		<path class="st2" d="M49.1,13.1H51V30h-1.9V13.1z"/>
		<path class="st2" d="M54.8,13.1h1.9V30h-1.9V13.1z"/>
		<path class="st2" d="M59.9,23.9c0-3.9,2.1-6.2,5.6-6.2c3.4,0,5.6,2.4,5.6,6.2c0,3.9-2.1,6.2-5.6,6.2C62,30.2,59.9,27.8,59.9,23.9z
			 M69,23.9c0-2.9-1.3-4.5-3.6-4.5c-2.3,0-3.6,1.6-3.6,4.5s1.3,4.5,3.6,4.5C67.7,28.4,69,26.8,69,23.9z"/>
		<path class="st2" d="M80.7,30V13.8h6.2c3,0,4.8,1.6,4.8,4c0,1.7-1.2,3.2-2.8,3.5v0.2c2.2,0.3,3.6,1.8,3.6,3.9c0,2.8-2,4.5-5.5,4.5
			h-6.3C80.7,29.9,80.7,30,80.7,30z M82.7,20.8H86c2.4,0,3.7-0.9,3.7-2.6c0-1.6-1.2-2.6-3.2-2.6h-3.7v5.2H82.7z M86.7,28.2
			c2.4,0,3.7-1,3.7-2.9s-1.3-2.8-3.9-2.8h-3.8v5.7H86.7z"/>
		<path class="st2" d="M95.7,13.1h1.9V30h-1.9V13.1z"/>
		<path class="st2" d="M111.1,30h-1.8v-1.9H109c-0.6,1.3-1.9,2.1-3.7,2.1c-2.7,0-4.1-1.6-4.1-4.5v-7.8h1.9v7.3
			c0,2.2,0.8,3.2,2.7,3.2c2.1,0,3.3-1.3,3.3-3.4v-7.1h1.9L111.1,30L111.1,30z"/>
		<path class="st2" d="M116.4,27c0.9,0,1.5,0.6,1.5,1.6c0,0.9-0.6,1.6-1.5,1.6s-1.6-0.6-1.6-1.6C114.9,27.7,115.5,27,116.4,27z
			 M117.5,13.8l-0.2,10.8h-1.9l-0.2-10.8H117.5z"/>
		<path class="st2" d="M133.8,30h-1.9l-4.4-16.1h2.1l3.2,13.1h0.1l3.6-13.1h2l3.6,13.1h0.1l3.2-13.1h2.1L143.2,30h-1.9l-3.7-12.7
			h-0.1L133.8,30z"/>
		<path class="st2" d="M150.1,14.1c0-0.7,0.6-1.3,1.3-1.3s1.3,0.6,1.3,1.3s-0.6,1.3-1.3,1.3C150.7,15.5,150.1,14.8,150.1,14.1z
			 M150.5,17.9h1.9V30h-1.9V17.9z"/>
		<path class="st2" d="M166,26.8c-0.6,2.1-2.4,3.3-5.1,3.3c-3.3,0-5.4-2.4-5.4-6.2s2.1-6.3,5.4-6.3c3.3,0,5.2,2.3,5.2,6.1v0.7h-8.7
			v0.1c0.1,2.4,1.4,3.9,3.5,3.9c1.6,0,2.6-0.6,3.1-1.6H166z M157.5,22.9h6.6c0-2.1-1.3-3.5-3.2-3.5
			C158.9,19.4,157.6,20.8,157.5,22.9z"/>
		<path class="st2" d="M175.5,31.3h2c0.2,1,1.3,1.6,3,1.6c2.2,0,3.4-1.1,3.4-2.8v-2.4h-0.2c-0.8,1.3-2.1,2.1-3.8,2.1
			c-3.1,0-5.1-2.4-5.1-6s2-6.1,5.1-6.1c1.7,0,3.2,0.8,3.9,2.1h0.2v-1.9h1.8v12.3c0,2.7-2.1,4.4-5.4,4.4
			C177.7,34.6,175.8,33.3,175.5,31.3z M180.5,19.4c-2.2,0-3.5,1.7-3.5,4.3s1.3,4.3,3.5,4.3s3.6-1.7,3.6-4.3S182.7,19.4,180.5,19.4z"
			/>
		<path class="st2" d="M199.5,26.8c-0.6,2.1-2.4,3.3-5.1,3.3c-3.3,0-5.4-2.4-5.4-6.2s2.1-6.3,5.4-6.3c3.3,0,5.2,2.3,5.2,6.1v0.7H191
			v0.1c0.1,2.4,1.4,3.9,3.5,3.9c1.6,0,2.6-0.6,3.1-1.6H199.5z M191,22.9h6.6c0-2.1-1.3-3.5-3.2-3.5C192.4,19.4,191.1,20.8,191,22.9z
			"/>
		<path class="st2" d="M202.8,13.1h1.9v6.7h0.2c0.6-1.3,1.9-2.1,3.7-2.1c2.6,0,4.2,1.6,4.2,4.5V30h-1.9v-7.3c0-2.1-1-3.2-2.8-3.2
			c-2.2,0-3.3,1.4-3.3,3.4V30h-1.9L202.8,13.1L202.8,13.1z"/>
		<path class="st2" d="M219,14.8v3.1h2.7v1.6H219v6.8c0,1.4,0.5,2,1.8,2c0.3,0,0.5,0,0.9,0v1.6c-0.4,0.1-0.7,0.1-1.1,0.1
			c-2.5,0-3.5-0.9-3.5-3.2v-7.3h-1.9v-1.6h1.9v-3.1C217.1,14.8,219,14.8,219,14.8z"/>
		<path class="st2" d="M224.8,19.8v-6h1.8v6H224.8z"/>
		<path class="st2" d="M234.6,17.7c2.5,0,4.3,1.3,4.5,3.2h-1.9c-0.3-1-1.2-1.6-2.7-1.6c-1.4,0-2.6,0.7-2.6,1.8
			c0,0.8,0.7,1.3,2.1,1.7l1.9,0.4c2.3,0.5,3.4,1.5,3.4,3.3c0,2.2-2.1,3.6-4.8,3.6s-4.5-1.3-4.7-3.3h2c0.3,1,1.3,1.7,2.8,1.7
			c1.6,0,2.8-0.8,2.8-1.9c0-0.8-0.6-1.4-1.9-1.7l-2.1-0.5c-2.3-0.5-3.3-1.5-3.3-3.3C230.1,19.2,232,17.7,234.6,17.7z"/>
		<path class="st2" d="M246.3,13.7c2.8,0,4.7,1.7,4.7,4c0,1.8-0.9,3-2.3,3.9c-1.4,0.8-1.8,1.5-1.8,2.6V25h-2v-1
			c0-1.5,0.7-2.5,2.2-3.4c1.3-0.8,1.8-1.5,1.8-2.7c0-1.4-1.1-2.4-2.7-2.4c-1.7,0-2.8,1-2.9,2.6h-1.9
			C241.5,15.6,243.2,13.7,246.3,13.7z M244.5,28.6c0-0.9,0.6-1.6,1.6-1.6c0.9,0,1.5,0.6,1.5,1.6c0,0.9-0.6,1.6-1.5,1.6
			C245.1,30.2,244.5,29.5,244.5,28.6z"/>
	</g>
</g>
<g id="Layer_2" class="st3">
	<g class="st4">
		<path class="st5" d="M30.4,30v-7.3h-8.9V30h-2V13.8h2v7h8.9v-7h2V30H30.4z"/>
		<path class="st5" d="M35.6,26.6c0-2.2,1.6-3.4,4.4-3.6l3.5-0.2v-1.1c0-1.5-0.9-2.3-2.7-2.3c-1.4,0-2.4,0.5-2.7,1.5h-1.9
			c0.3-1.9,2.2-3.2,4.7-3.2c2.9,0,4.6,1.5,4.6,4V30h-1.8v-1.8h-0.2c-0.8,1.3-2.1,2-3.7,2C37.3,30.2,35.6,28.8,35.6,26.6z M43.5,25.5
			v-1.1l-3.2,0.2c-1.8,0.1-2.6,0.8-2.6,2s1,1.9,2.4,1.9C42,28.5,43.5,27.2,43.5,25.5z"/>
		<path class="st5" d="M49.1,13.1H51V30h-1.9V13.1z"/>
		<path class="st5" d="M54.8,13.1h1.9V30h-1.9V13.1z"/>
		<path class="st5" d="M59.9,23.9c0-3.9,2.1-6.2,5.6-6.2c3.4,0,5.6,2.4,5.6,6.2c0,3.9-2.1,6.2-5.6,6.2C62,30.2,59.9,27.8,59.9,23.9z
			 M69,23.9c0-2.9-1.3-4.5-3.6-4.5c-2.3,0-3.6,1.6-3.6,4.5s1.3,4.5,3.6,4.5C67.7,28.4,69,26.8,69,23.9z"/>
		<path class="st5" d="M80.7,30V13.8h6.2c3,0,4.8,1.6,4.8,4c0,1.7-1.2,3.2-2.8,3.5v0.2c2.2,0.3,3.6,1.8,3.6,3.9c0,2.8-2,4.5-5.5,4.5
			h-6.3C80.7,29.9,80.7,30,80.7,30z M82.7,20.8H86c2.4,0,3.7-0.9,3.7-2.6c0-1.6-1.2-2.6-3.2-2.6h-3.7v5.2H82.7z M86.7,28.2
			c2.4,0,3.7-1,3.7-2.9s-1.3-2.8-3.9-2.8h-3.8v5.7H86.7z"/>
		<path class="st5" d="M95.7,13.1h1.9V30h-1.9V13.1z"/>
		<path class="st5" d="M111.1,30h-1.8v-1.9H109c-0.6,1.3-1.9,2.1-3.7,2.1c-2.7,0-4.1-1.6-4.1-4.5v-7.8h1.9v7.3
			c0,2.2,0.8,3.2,2.7,3.2c2.1,0,3.3-1.3,3.3-3.4v-7.1h1.9L111.1,30L111.1,30z"/>
		<path class="st5" d="M116.4,27c0.9,0,1.5,0.6,1.5,1.6c0,0.9-0.6,1.6-1.5,1.6s-1.6-0.6-1.6-1.6C114.9,27.7,115.5,27,116.4,27z
			 M117.5,13.8l-0.2,10.8h-1.9l-0.2-10.8H117.5z"/>
		<path class="st5" d="M133.8,30h-1.9l-4.4-16.1h2.1l3.2,13.1h0.1l3.6-13.1h2l3.6,13.1h0.1l3.2-13.1h2.1L143.2,30h-1.9l-3.7-12.7
			h-0.1L133.8,30z"/>
		<path class="st5" d="M150.1,14.1c0-0.7,0.6-1.3,1.3-1.3s1.3,0.6,1.3,1.3s-0.6,1.3-1.3,1.3C150.7,15.5,150.1,14.8,150.1,14.1z
			 M150.5,17.9h1.9V30h-1.9V17.9z"/>
		<path class="st5" d="M166,26.8c-0.6,2.1-2.4,3.3-5.1,3.3c-3.3,0-5.4-2.4-5.4-6.2s2.1-6.3,5.4-6.3c3.3,0,5.2,2.3,5.2,6.1v0.7h-8.7
			v0.1c0.1,2.4,1.4,3.9,3.5,3.9c1.6,0,2.6-0.6,3.1-1.6H166z M157.5,22.9h6.6c0-2.1-1.3-3.5-3.2-3.5
			C158.9,19.4,157.6,20.8,157.5,22.9z"/>
		<path class="st5" d="M175.5,31.3h2c0.2,1,1.3,1.6,3,1.6c2.2,0,3.4-1.1,3.4-2.8v-2.4h-0.2c-0.8,1.3-2.1,2.1-3.8,2.1
			c-3.1,0-5.1-2.4-5.1-6s2-6.1,5.1-6.1c1.7,0,3.2,0.8,3.9,2.1h0.2v-1.9h1.8v12.3c0,2.7-2.1,4.4-5.4,4.4
			C177.7,34.6,175.8,33.3,175.5,31.3z M180.5,19.4c-2.2,0-3.5,1.7-3.5,4.3s1.3,4.3,3.5,4.3s3.6-1.7,3.6-4.3S182.7,19.4,180.5,19.4z"
			/>
		<path class="st5" d="M199.5,26.8c-0.6,2.1-2.4,3.3-5.1,3.3c-3.3,0-5.4-2.4-5.4-6.2s2.1-6.3,5.4-6.3c3.3,0,5.2,2.3,5.2,6.1v0.7H191
			v0.1c0.1,2.4,1.4,3.9,3.5,3.9c1.6,0,2.6-0.6,3.1-1.6H199.5z M191,22.9h6.6c0-2.1-1.3-3.5-3.2-3.5C192.4,19.4,191.1,20.8,191,22.9z
			"/>
		<path class="st5" d="M202.8,13.1h1.9v6.7h0.2c0.6-1.3,1.9-2.1,3.7-2.1c2.6,0,4.2,1.6,4.2,4.5V30h-1.9v-7.3c0-2.1-1-3.2-2.8-3.2
			c-2.2,0-3.3,1.4-3.3,3.4V30h-1.9L202.8,13.1L202.8,13.1z"/>
		<path class="st5" d="M219,14.8v3.1h2.7v1.6H219v6.8c0,1.4,0.5,2,1.8,2c0.3,0,0.5,0,0.9,0v1.6c-0.4,0.1-0.7,0.1-1.1,0.1
			c-2.5,0-3.5-0.9-3.5-3.2v-7.3h-1.9v-1.6h1.9v-3.1C217.1,14.8,219,14.8,219,14.8z"/>
		<path class="st5" d="M224.8,19.8v-6h1.8v6H224.8z"/>
		<path class="st5" d="M234.6,17.7c2.5,0,4.3,1.3,4.5,3.2h-1.9c-0.3-1-1.2-1.6-2.7-1.6c-1.4,0-2.6,0.7-2.6,1.8
			c0,0.8,0.7,1.3,2.1,1.7l1.9,0.4c2.3,0.5,3.4,1.5,3.4,3.3c0,2.2-2.1,3.6-4.8,3.6s-4.5-1.3-4.7-3.3h2c0.3,1,1.3,1.7,2.8,1.7
			c1.6,0,2.8-0.8,2.8-1.9c0-0.8-0.6-1.4-1.9-1.7l-2.1-0.5c-2.3-0.5-3.3-1.5-3.3-3.3C230.1,19.2,232,17.7,234.6,17.7z"/>
		<path class="st5" d="M246.3,13.7c2.8,0,4.7,1.7,4.7,4c0,1.8-0.9,3-2.3,3.9c-1.4,0.8-1.8,1.5-1.8,2.6V25h-2v-1
			c0-1.5,0.7-2.5,2.2-3.4c1.3-0.8,1.8-1.5,1.8-2.7c0-1.4-1.1-2.4-2.7-2.4c-1.7,0-2.8,1-2.9,2.6h-1.9
			C241.5,15.6,243.2,13.7,246.3,13.7z M244.5,28.6c0-0.9,0.6-1.6,1.6-1.6c0.9,0,1.5,0.6,1.5,1.6c0,0.9-0.6,1.6-1.5,1.6
			C245.1,30.2,244.5,29.5,244.5,28.6z"/>
	</g>
	<g class="st4">
		<path class="st5" d="M30.4,30v-7.3h-8.9V30h-2V13.8h2v7h8.9v-7h2V30H30.4z"/>
		<path class="st5" d="M35.6,26.6c0-2.2,1.6-3.4,4.4-3.6l3.5-0.2v-1.1c0-1.5-0.9-2.3-2.7-2.3c-1.4,0-2.4,0.5-2.7,1.5h-1.9
			c0.3-1.9,2.2-3.2,4.7-3.2c2.9,0,4.6,1.5,4.6,4V30h-1.8v-1.8h-0.2c-0.8,1.3-2.1,2-3.7,2C37.3,30.2,35.6,28.8,35.6,26.6z M43.5,25.5
			v-1.1l-3.2,0.2c-1.8,0.1-2.6,0.8-2.6,2s1,1.9,2.4,1.9C42,28.5,43.5,27.2,43.5,25.5z"/>
		<path class="st5" d="M49.1,13.1H51V30h-1.9V13.1z"/>
		<path class="st5" d="M54.8,13.1h1.9V30h-1.9V13.1z"/>
		<path class="st5" d="M59.9,23.9c0-3.9,2.1-6.2,5.6-6.2c3.4,0,5.6,2.4,5.6,6.2c0,3.9-2.1,6.2-5.6,6.2C62,30.2,59.9,27.8,59.9,23.9z
			 M69,23.9c0-2.9-1.3-4.5-3.6-4.5c-2.3,0-3.6,1.6-3.6,4.5s1.3,4.5,3.6,4.5C67.7,28.4,69,26.8,69,23.9z"/>
		<path class="st5" d="M80.7,30V13.8h6.2c3,0,4.8,1.6,4.8,4c0,1.7-1.2,3.2-2.8,3.5v0.2c2.2,0.3,3.6,1.8,3.6,3.9c0,2.8-2,4.5-5.5,4.5
			h-6.3C80.7,29.9,80.7,30,80.7,30z M82.7,20.8H86c2.4,0,3.7-0.9,3.7-2.6c0-1.6-1.2-2.6-3.2-2.6h-3.7v5.2H82.7z M86.7,28.2
			c2.4,0,3.7-1,3.7-2.9s-1.3-2.8-3.9-2.8h-3.8v5.7H86.7z"/>
		<path class="st5" d="M95.7,13.1h1.9V30h-1.9V13.1z"/>
		<path class="st5" d="M111.1,30h-1.8v-1.9H109c-0.6,1.3-1.9,2.1-3.7,2.1c-2.7,0-4.1-1.6-4.1-4.5v-7.8h1.9v7.3
			c0,2.2,0.8,3.2,2.7,3.2c2.1,0,3.3-1.3,3.3-3.4v-7.1h1.9L111.1,30L111.1,30z"/>
		<path class="st5" d="M116.4,27c0.9,0,1.5,0.6,1.5,1.6c0,0.9-0.6,1.6-1.5,1.6s-1.6-0.6-1.6-1.6C114.9,27.7,115.5,27,116.4,27z
			 M117.5,13.8l-0.2,10.8h-1.9l-0.2-10.8H117.5z"/>
		<path class="st5" d="M133.8,30h-1.9l-4.4-16.1h2.1l3.2,13.1h0.1l3.6-13.1h2l3.6,13.1h0.1l3.2-13.1h2.1L143.2,30h-1.9l-3.7-12.7
			h-0.1L133.8,30z"/>
		<path class="st5" d="M150.1,14.1c0-0.7,0.6-1.3,1.3-1.3s1.3,0.6,1.3,1.3s-0.6,1.3-1.3,1.3C150.7,15.5,150.1,14.8,150.1,14.1z
			 M150.5,17.9h1.9V30h-1.9V17.9z"/>
		<path class="st5" d="M166,26.8c-0.6,2.1-2.4,3.3-5.1,3.3c-3.3,0-5.4-2.4-5.4-6.2s2.1-6.3,5.4-6.3c3.3,0,5.2,2.3,5.2,6.1v0.7h-8.7
			v0.1c0.1,2.4,1.4,3.9,3.5,3.9c1.6,0,2.6-0.6,3.1-1.6H166z M157.5,22.9h6.6c0-2.1-1.3-3.5-3.2-3.5
			C158.9,19.4,157.6,20.8,157.5,22.9z"/>
		<path class="st5" d="M175.5,31.3h2c0.2,1,1.3,1.6,3,1.6c2.2,0,3.4-1.1,3.4-2.8v-2.4h-0.2c-0.8,1.3-2.1,2.1-3.8,2.1
			c-3.1,0-5.1-2.4-5.1-6s2-6.1,5.1-6.1c1.7,0,3.2,0.8,3.9,2.1h0.2v-1.9h1.8v12.3c0,2.7-2.1,4.4-5.4,4.4
			C177.7,34.6,175.8,33.3,175.5,31.3z M180.5,19.4c-2.2,0-3.5,1.7-3.5,4.3s1.3,4.3,3.5,4.3s3.6-1.7,3.6-4.3S182.7,19.4,180.5,19.4z"
			/>
		<path class="st5" d="M199.5,26.8c-0.6,2.1-2.4,3.3-5.1,3.3c-3.3,0-5.4-2.4-5.4-6.2s2.1-6.3,5.4-6.3c3.3,0,5.2,2.3,5.2,6.1v0.7H191
			v0.1c0.1,2.4,1.4,3.9,3.5,3.9c1.6,0,2.6-0.6,3.1-1.6H199.5z M191,22.9h6.6c0-2.1-1.3-3.5-3.2-3.5C192.4,19.4,191.1,20.8,191,22.9z
			"/>
		<path class="st5" d="M202.8,13.1h1.9v6.7h0.2c0.6-1.3,1.9-2.1,3.7-2.1c2.6,0,4.2,1.6,4.2,4.5V30h-1.9v-7.3c0-2.1-1-3.2-2.8-3.2
			c-2.2,0-3.3,1.4-3.3,3.4V30h-1.9L202.8,13.1L202.8,13.1z"/>
		<path class="st5" d="M219,14.8v3.1h2.7v1.6H219v6.8c0,1.4,0.5,2,1.8,2c0.3,0,0.5,0,0.9,0v1.6c-0.4,0.1-0.7,0.1-1.1,0.1
			c-2.5,0-3.5-0.9-3.5-3.2v-7.3h-1.9v-1.6h1.9v-3.1C217.1,14.8,219,14.8,219,14.8z"/>
		<path class="st5" d="M224.8,19.8v-6h1.8v6H224.8z"/>
		<path class="st5" d="M234.6,17.7c2.5,0,4.3,1.3,4.5,3.2h-1.9c-0.3-1-1.2-1.6-2.7-1.6c-1.4,0-2.6,0.7-2.6,1.8
			c0,0.8,0.7,1.3,2.1,1.7l1.9,0.4c2.3,0.5,3.4,1.5,3.4,3.3c0,2.2-2.1,3.6-4.8,3.6s-4.5-1.3-4.7-3.3h2c0.3,1,1.3,1.7,2.8,1.7
			c1.6,0,2.8-0.8,2.8-1.9c0-0.8-0.6-1.4-1.9-1.7l-2.1-0.5c-2.3-0.5-3.3-1.5-3.3-3.3C230.1,19.2,232,17.7,234.6,17.7z"/>
		<path class="st5" d="M246.3,13.7c2.8,0,4.7,1.7,4.7,4c0,1.8-0.9,3-2.3,3.9c-1.4,0.8-1.8,1.5-1.8,2.6V25h-2v-1
			c0-1.5,0.7-2.5,2.2-3.4c1.3-0.8,1.8-1.5,1.8-2.7c0-1.4-1.1-2.4-2.7-2.4c-1.7,0-2.8,1-2.9,2.6h-1.9
			C241.5,15.6,243.2,13.7,246.3,13.7z M244.5,28.6c0-0.9,0.6-1.6,1.6-1.6c0.9,0,1.5,0.6,1.5,1.6c0,0.9-0.6,1.6-1.5,1.6
			C245.1,30.2,244.5,29.5,244.5,28.6z"/>
	</g>
	<g class="st4">
		<path class="st5" d="M30.4,30v-7.3h-8.9V30h-2V13.8h2v7h8.9v-7h2V30H30.4z"/>
		<path class="st5" d="M35.6,26.6c0-2.2,1.6-3.4,4.4-3.6l3.5-0.2v-1.1c0-1.5-0.9-2.3-2.7-2.3c-1.4,0-2.4,0.5-2.7,1.5h-1.9
			c0.3-1.9,2.2-3.2,4.7-3.2c2.9,0,4.6,1.5,4.6,4V30h-1.8v-1.8h-0.2c-0.8,1.3-2.1,2-3.7,2C37.3,30.2,35.6,28.8,35.6,26.6z M43.5,25.5
			v-1.1l-3.2,0.2c-1.8,0.1-2.6,0.8-2.6,2s1,1.9,2.4,1.9C42,28.5,43.5,27.2,43.5,25.5z"/>
		<path class="st5" d="M49.1,13.1H51V30h-1.9V13.1z"/>
		<path class="st5" d="M54.8,13.1h1.9V30h-1.9V13.1z"/>
		<path class="st5" d="M59.9,23.9c0-3.9,2.1-6.2,5.6-6.2c3.4,0,5.6,2.4,5.6,6.2c0,3.9-2.1,6.2-5.6,6.2C62,30.2,59.9,27.8,59.9,23.9z
			 M69,23.9c0-2.9-1.3-4.5-3.6-4.5c-2.3,0-3.6,1.6-3.6,4.5s1.3,4.5,3.6,4.5C67.7,28.4,69,26.8,69,23.9z"/>
		<path class="st5" d="M80.7,30V13.8h6.2c3,0,4.8,1.6,4.8,4c0,1.7-1.2,3.2-2.8,3.5v0.2c2.2,0.3,3.6,1.8,3.6,3.9c0,2.8-2,4.5-5.5,4.5
			h-6.3C80.7,29.9,80.7,30,80.7,30z M82.7,20.8H86c2.4,0,3.7-0.9,3.7-2.6c0-1.6-1.2-2.6-3.2-2.6h-3.7v5.2H82.7z M86.7,28.2
			c2.4,0,3.7-1,3.7-2.9s-1.3-2.8-3.9-2.8h-3.8v5.7H86.7z"/>
		<path class="st5" d="M95.7,13.1h1.9V30h-1.9V13.1z"/>
		<path class="st5" d="M111.1,30h-1.8v-1.9H109c-0.6,1.3-1.9,2.1-3.7,2.1c-2.7,0-4.1-1.6-4.1-4.5v-7.8h1.9v7.3
			c0,2.2,0.8,3.2,2.7,3.2c2.1,0,3.3-1.3,3.3-3.4v-7.1h1.9L111.1,30L111.1,30z"/>
		<path class="st5" d="M116.4,27c0.9,0,1.5,0.6,1.5,1.6c0,0.9-0.6,1.6-1.5,1.6s-1.6-0.6-1.6-1.6C114.9,27.7,115.5,27,116.4,27z
			 M117.5,13.8l-0.2,10.8h-1.9l-0.2-10.8H117.5z"/>
		<path class="st5" d="M133.8,30h-1.9l-4.4-16.1h2.1l3.2,13.1h0.1l3.6-13.1h2l3.6,13.1h0.1l3.2-13.1h2.1L143.2,30h-1.9l-3.7-12.7
			h-0.1L133.8,30z"/>
		<path class="st5" d="M150.1,14.1c0-0.7,0.6-1.3,1.3-1.3s1.3,0.6,1.3,1.3s-0.6,1.3-1.3,1.3C150.7,15.5,150.1,14.8,150.1,14.1z
			 M150.5,17.9h1.9V30h-1.9V17.9z"/>
		<path class="st5" d="M166,26.8c-0.6,2.1-2.4,3.3-5.1,3.3c-3.3,0-5.4-2.4-5.4-6.2s2.1-6.3,5.4-6.3c3.3,0,5.2,2.3,5.2,6.1v0.7h-8.7
			v0.1c0.1,2.4,1.4,3.9,3.5,3.9c1.6,0,2.6-0.6,3.1-1.6H166z M157.5,22.9h6.6c0-2.1-1.3-3.5-3.2-3.5
			C158.9,19.4,157.6,20.8,157.5,22.9z"/>
		<path class="st5" d="M175.5,31.3h2c0.2,1,1.3,1.6,3,1.6c2.2,0,3.4-1.1,3.4-2.8v-2.4h-0.2c-0.8,1.3-2.1,2.1-3.8,2.1
			c-3.1,0-5.1-2.4-5.1-6s2-6.1,5.1-6.1c1.7,0,3.2,0.8,3.9,2.1h0.2v-1.9h1.8v12.3c0,2.7-2.1,4.4-5.4,4.4
			C177.7,34.6,175.8,33.3,175.5,31.3z M180.5,19.4c-2.2,0-3.5,1.7-3.5,4.3s1.3,4.3,3.5,4.3s3.6-1.7,3.6-4.3S182.7,19.4,180.5,19.4z"
			/>
		<path class="st5" d="M199.5,26.8c-0.6,2.1-2.4,3.3-5.1,3.3c-3.3,0-5.4-2.4-5.4-6.2s2.1-6.3,5.4-6.3c3.3,0,5.2,2.3,5.2,6.1v0.7H191
			v0.1c0.1,2.4,1.4,3.9,3.5,3.9c1.6,0,2.6-0.6,3.1-1.6H199.5z M191,22.9h6.6c0-2.1-1.3-3.5-3.2-3.5C192.4,19.4,191.1,20.8,191,22.9z
			"/>
		<path class="st5" d="M202.8,13.1h1.9v6.7h0.2c0.6-1.3,1.9-2.1,3.7-2.1c2.6,0,4.2,1.6,4.2,4.5V30h-1.9v-7.3c0-2.1-1-3.2-2.8-3.2
			c-2.2,0-3.3,1.4-3.3,3.4V30h-1.9L202.8,13.1L202.8,13.1z"/>
		<path class="st5" d="M219,14.8v3.1h2.7v1.6H219v6.8c0,1.4,0.5,2,1.8,2c0.3,0,0.5,0,0.9,0v1.6c-0.4,0.1-0.7,0.1-1.1,0.1
			c-2.5,0-3.5-0.9-3.5-3.2v-7.3h-1.9v-1.6h1.9v-3.1C217.1,14.8,219,14.8,219,14.8z"/>
		<path class="st5" d="M224.8,19.8v-6h1.8v6H224.8z"/>
		<path class="st5" d="M234.6,17.7c2.5,0,4.3,1.3,4.5,3.2h-1.9c-0.3-1-1.2-1.6-2.7-1.6c-1.4,0-2.6,0.7-2.6,1.8
			c0,0.8,0.7,1.3,2.1,1.7l1.9,0.4c2.3,0.5,3.4,1.5,3.4,3.3c0,2.2-2.1,3.6-4.8,3.6s-4.5-1.3-4.7-3.3h2c0.3,1,1.3,1.7,2.8,1.7
			c1.6,0,2.8-0.8,2.8-1.9c0-0.8-0.6-1.4-1.9-1.7l-2.1-0.5c-2.3-0.5-3.3-1.5-3.3-3.3C230.1,19.2,232,17.7,234.6,17.7z"/>
		<path class="st5" d="M246.3,13.7c2.8,0,4.7,1.7,4.7,4c0,1.8-0.9,3-2.3,3.9c-1.4,0.8-1.8,1.5-1.8,2.6V25h-2v-1
			c0-1.5,0.7-2.5,2.2-3.4c1.3-0.8,1.8-1.5,1.8-2.7c0-1.4-1.1-2.4-2.7-2.4c-1.7,0-2.8,1-2.9,2.6h-1.9
			C241.5,15.6,243.2,13.7,246.3,13.7z M244.5,28.6c0-0.9,0.6-1.6,1.6-1.6c0.9,0,1.5,0.6,1.5,1.6c0,0.9-0.6,1.6-1.5,1.6
			C245.1,30.2,244.5,29.5,244.5,28.6z"/>
	</g>
</g>
<g class="st3">
	<path class="st2" d="M224.3,19.9l1.5-6.1h2.2l-1.9,6.1H224.3z"/>
</g>
<rect x="17.3" y="13.1" class="st6" width="258.2" height="66.5"/>
<path class="st5" d="M30.3,30v-7.4h-8.9V30h-2V13.8h2v7h8.9v-7h2V30H30.3z"/>
<path class="st5" d="M35.5,26.6c0-2.2,1.6-3.4,4.4-3.6l3.5-0.2v-1.1c0-1.5-0.9-2.3-2.8-2.3c-1.5,0-2.5,0.6-2.7,1.5h-2
	c0.3-2,2.2-3.2,4.8-3.2c3,0,4.6,1.5,4.6,4V30h-1.8v-1.8h-0.2c-0.8,1.3-2.1,2-3.7,2C37.3,30.2,35.5,28.9,35.5,26.6z M43.5,25.5v-1.1
	l-3.3,0.2c-1.8,0.1-2.7,0.8-2.7,2c0,1.2,1,2,2.5,2C42,28.5,43.5,27.2,43.5,25.5z"/>
<path class="st5" d="M49.1,13.1h1.9v17h-1.9V13.1z"/>
<path class="st5" d="M54.9,13.1h1.9v17h-1.9V13.1z"/>
<path class="st5" d="M60,24c0-3.9,2.1-6.3,5.6-6.3s5.6,2.4,5.6,6.3c0,3.9-2.1,6.3-5.6,6.3S60,27.9,60,24z M69.2,24
	c0-2.9-1.3-4.5-3.6-4.5c-2.3,0-3.6,1.7-3.6,4.5c0,2.9,1.3,4.5,3.6,4.5C68,28.5,69.2,26.8,69.2,24z"/>
<path class="st5" d="M81.1,30V13.8h6.2c3,0,4.8,1.6,4.8,4.1c0,1.7-1.2,3.2-2.8,3.5v0.2c2.2,0.3,3.6,1.8,3.6,4c0,2.9-2.1,4.6-5.5,4.6
	H81.1z M83.1,20.8h3.2c2.5,0,3.7-0.9,3.7-2.6c0-1.7-1.2-2.6-3.2-2.6h-3.8V20.8z M87.1,28.2c2.4,0,3.7-1,3.7-2.9
	c0-1.9-1.3-2.8-3.9-2.8h-3.8v5.7H87.1z"/>
<path class="st5" d="M96.1,13.1h1.9v17h-1.9V13.1z"/>
<path class="st5" d="M111.7,30h-1.8v-1.9h-0.2c-0.6,1.4-1.9,2.1-3.8,2.1c-2.7,0-4.1-1.6-4.1-4.5v-7.9h1.9v7.4c0,2.2,0.8,3.2,2.8,3.2
	c2.1,0,3.3-1.3,3.3-3.4v-7.2h1.9V30z"/>
<path class="st5" d="M117.1,27.1c0.9,0,1.6,0.7,1.6,1.6c0,0.9-0.6,1.6-1.6,1.6c-0.9,0-1.6-0.7-1.6-1.6
	C115.5,27.7,116.2,27.1,117.1,27.1z M118.2,13.8L118,24.6h-1.9l-0.2-10.9H118.2z"/>
<path class="st5" d="M134.6,30h-1.9l-4.4-16.3h2.1l3.2,13.2h0.1l3.6-13.2h2.1L143,27h0.1l3.2-13.2h2.1L144.1,30h-1.9l-3.7-12.8h-0.1
	L134.6,30z"/>
<path class="st5" d="M149.5,26.6c0-2.2,1.6-3.4,4.4-3.6l3.5-0.2v-1.1c0-1.5-0.9-2.3-2.8-2.3c-1.5,0-2.5,0.6-2.7,1.5h-2
	c0.3-2,2.2-3.2,4.8-3.2c3,0,4.6,1.5,4.6,4V30h-1.8v-1.8h-0.2c-0.8,1.3-2.1,2-3.7,2C151.3,30.2,149.5,28.9,149.5,26.6z M157.5,25.5
	v-1.1l-3.3,0.2c-1.8,0.1-2.7,0.8-2.7,2c0,1.2,1,2,2.5,2C156,28.5,157.5,27.2,157.5,25.5z"/>
<path class="st5" d="M167.2,17.7c2.5,0,4.3,1.3,4.6,3.3h-1.9c-0.3-1-1.2-1.6-2.7-1.6c-1.4,0-2.6,0.7-2.6,1.8c0,0.8,0.7,1.4,2.1,1.7
	l1.9,0.5c2.3,0.6,3.4,1.5,3.4,3.3c0,2.2-2.1,3.7-4.9,3.7c-2.7,0-4.6-1.3-4.8-3.3h2c0.3,1,1.3,1.7,2.9,1.7c1.6,0,2.8-0.8,2.8-1.9
	c0-0.8-0.6-1.4-1.9-1.7l-2.1-0.5c-2.3-0.6-3.3-1.5-3.3-3.3C162.7,19.2,164.7,17.7,167.2,17.7z"/>
<path class="st5" d="M181.5,31.4h2.1c0.2,1,1.3,1.6,3,1.6c2.2,0,3.5-1.1,3.5-2.9v-2.4h-0.2c-0.8,1.3-2.1,2.1-3.8,2.1
	c-3.1,0-5.1-2.4-5.1-6.1c0-3.6,2-6.1,5.1-6.1c1.7,0,3.2,0.8,3.9,2.1h0.2v-1.9h1.8v12.4c0,2.7-2.1,4.5-5.4,4.5
	C183.7,34.7,181.8,33.4,181.5,31.4z M186.5,19.4c-2.3,0-3.5,1.7-3.5,4.4c0,2.7,1.3,4.4,3.5,4.4s3.6-1.7,3.6-4.4
	C190.1,21.1,188.8,19.4,186.5,19.4z"/>
<path class="st5" d="M195.3,14.1c0-0.7,0.6-1.4,1.4-1.4s1.4,0.6,1.4,1.4s-0.6,1.4-1.4,1.4S195.3,14.8,195.3,14.1z M195.7,17.9h1.9
	V30h-1.9V17.9z"/>
<path class="st5" d="M203.5,28.1h-0.2V30h-1.8v-17h1.9v6.7h0.2c0.7-1.3,2.1-2.1,3.8-2.1c3.1,0,5.1,2.5,5.1,6.3c0,3.8-2,6.3-5.1,6.3
	C205.7,30.2,204.3,29.5,203.5,28.1z M203.4,24c0,2.8,1.4,4.5,3.6,4.5c2.2,0,3.5-1.7,3.5-4.5s-1.3-4.5-3.5-4.5
	C204.7,19.4,203.4,21.2,203.4,24z"/>
<path class="st5" d="M218.3,14.7v3.1h2.7v1.6h-2.7v6.9c0,1.4,0.5,2,1.8,2c0.3,0,0.5,0,0.9,0V30c-0.4,0.1-0.8,0.1-1.1,0.1
	c-2.5,0-3.5-0.9-3.5-3.2v-7.4h-2v-1.6h2v-3.1H218.3z"/>
<path class="st5" d="M224.1,19.8l1.5-6.1h2.1l-2,6.1H224.1z"/>
<path class="st5" d="M234,17.7c2.5,0,4.3,1.3,4.6,3.3h-1.9c-0.3-1-1.2-1.6-2.7-1.6c-1.4,0-2.6,0.7-2.6,1.8c0,0.8,0.7,1.4,2.1,1.7
	l1.9,0.5c2.3,0.6,3.4,1.5,3.4,3.3c0,2.2-2.1,3.7-4.9,3.7c-2.7,0-4.6-1.3-4.8-3.3h2c0.3,1,1.3,1.7,2.9,1.7c1.6,0,2.8-0.8,2.8-1.9
	c0-0.8-0.6-1.4-1.9-1.7l-2.1-0.5c-2.3-0.6-3.3-1.5-3.3-3.3C229.5,19.2,231.4,17.7,234,17.7z"/>
<path class="st5" d="M245.8,13.6c2.8,0,4.8,1.8,4.8,4.1c0,1.8-0.9,3-2.4,3.9c-1.4,0.8-1.8,1.5-1.8,2.7V25h-2v-1
	c0-1.5,0.7-2.5,2.3-3.4c1.3-0.8,1.8-1.5,1.8-2.7c0-1.4-1.1-2.4-2.8-2.4c-1.7,0-2.8,1-2.9,2.6h-1.9C241,15.6,242.7,13.6,245.8,13.6z
	 M244,28.7c0-0.9,0.7-1.6,1.6-1.6s1.6,0.7,1.6,1.6c0,0.9-0.6,1.6-1.6,1.6S244,29.6,244,28.7z"/>
</svg>
